<?xml version="1.0" encoding="UTF-8" standalone="no"?>
<svg
   xmlns:dc="http://purl.org/dc/elements/1.1/"
   xmlns:cc="http://creativecommons.org/ns#"
   xmlns:rdf="http://www.w3.org/1999/02/22-rdf-syntax-ns#"
   xmlns:svg="http://www.w3.org/2000/svg"
   xmlns="http://www.w3.org/2000/svg"
   xmlns:sodipodi="http://sodipodi.sourceforge.net/DTD/sodipodi-0.dtd"
   xmlns:inkscape="http://www.inkscape.org/namespaces/inkscape"
   height="2.94175"
   id="svg1422"
   inkscape:version="0.46"
   sodipodi:docbase="/datas/Projs/Cliparts Stocker/tmp/AIGA"
   sodipodi:docname="11949891061159207596aiga_elevator_.svg"
   sodipodi:version="0.32"
   width="2.9423213"
   inkscape:output_extension="org.inkscape.output.svg.inkscape"
   version="1.0">
  <metadata
     id="metadata13849">
    <rdf:RDF>
      <cc:Work
         rdf:about="">
        <dc:title>AIGA_Symbol_Signs</dc:title>
        <dc:description>EPS converted from  http://aiga.org</dc:description>
        <dc:subject>
          <rdf:Bag>
            <rdf:li>symbol</rdf:li>
            <rdf:li>mapsym</rdf:li>
          </rdf:Bag>
        </dc:subject>
        <dc:publisher>
          <cc:Agent
             rdf:about="http://www.openclipart.org/">
            <dc:title>Open Clip Art Library</dc:title>
          </cc:Agent>
        </dc:publisher>
        <dc:creator>
          <cc:Agent>
            <dc:title>Jean-Victor Balin</dc:title>
          </cc:Agent>
        </dc:creator>
        <dc:rights>
          <cc:Agent>
            <dc:title>Jean-Victor Balin</dc:title>
          </cc:Agent>
        </dc:rights>
        <dc:date />
        <dc:format>image/svg+xml</dc:format>
        <dc:type
           rdf:resource="http://purl.org/dc/dcmitype/StillImage" />
        <cc:license
           rdf:resource="http://web.resource.org/cc/PublicDomain" />
        <dc:language>en</dc:language>
      </cc:Work>
      <cc:License
         rdf:about="http://web.resource.org/cc/PublicDomain">
        <cc:permits
           rdf:resource="http://web.resource.org/cc/Reproduction" />
        <cc:permits
           rdf:resource="http://web.resource.org/cc/Distribution" />
        <cc:permits
           rdf:resource="http://web.resource.org/cc/DerivativeWorks" />
      </cc:License>
    </rdf:RDF>
  </metadata>
  <sodipodi:namedview
     bordercolor="#666666"
     borderopacity="1.0"
     id="base"
     inkscape:current-layer="svg1422"
     inkscape:cx="2.2849233"
     inkscape:cy="0.88425757"
     inkscape:pageopacity="0.0"
     inkscape:pageshadow="2"
     inkscape:window-height="684"
     inkscape:window-width="621"
     inkscape:window-x="3327"
     inkscape:window-y="274"
     inkscape:zoom="55.57227"
     pagecolor="#ffffff"
     showgrid="false" />
  <defs
     id="defs1424"><inkscape:perspective
   sodipodi:type="inkscape:persp3d"
   inkscape:vp_x="0 : 243.7935 : 1"
   inkscape:vp_y="0 : 1000 : 0"
   inkscape:vp_z="297.97501 : 243.7935 : 1"
   inkscape:persp3d-origin="148.9875 : 162.529 : 1"
   id="perspective13889" />
<marker
   id="ArrowEnd"
   markerHeight="3"
   markerUnits="strokeWidth"
   markerWidth="4"
   orient="auto"
   refX="0"
   refY="5"
   viewBox="0 0 10 10">
  <path
     d="M 0,0 L 10,5 L 0,10 L 0,0 z"
     id="path1427" />
</marker>
<marker
   id="ArrowStart"
   markerHeight="3"
   markerUnits="strokeWidth"
   markerWidth="4"
   orient="auto"
   refX="10"
   refY="5"
   viewBox="0 0 10 10">
  <path
     d="M 10,0 L 0,5 L 10,10 L 10,0 z"
     id="path1430" />
</marker>

	
	
	
	
	
</defs>
  <g
     id="g13902">
    <path
       style="fill:#231f20"
       d="M 0.3514108,2.94173 C 0.157309,2.94173 0,2.78425 0,2.58958 L 0,0.35141 C 0,0.1575 0.1572852,0 0.3514108,0 L 2.5909107,0 C 2.7850124,0 2.9423214,0.15747 2.9423214,0.35141 L 2.9423214,2.5896 C 2.9423214,2.78427 2.7850362,2.94175 2.5909107,2.94175 L 0.3514108,2.94175 L 0.3514108,2.94173 z"
       id="path13722" />
    <path
       style="fill:#ffffff"
       d="M 0.3514108,0.05931 C 0.1903891,0.05931 0.0594966,0.19058 0.0594966,0.35139 L 0.0594966,2.58958 C 0.0594966,2.75041 0.1903891,2.88185 0.3514108,2.88185 L 2.5909107,2.88185 C 2.7517419,2.88185 2.882444,2.75041 2.882444,2.58958 L 2.882444,0.35141 C 2.882444,0.19058 2.7517419,0.05933 2.5909107,0.05933 L 0.3514108,0.05933 L 0.3514108,0.05931 z"
       id="path13724" />
    <g
       transform="matrix(4.6783374e-3,0,0,4.6783374e-3,0.7153881,0.34142)"
       id="g1432">
      <g
         id="g1434">
        <path
           style="fill:#000000;stroke:none"
           id="path1436"
           d="M 0,448.039 L 0,230.038 L 0.0460052,230.03 C 0.0460052,208.288 16.767,190.229 39.767,190.229 L 258.267,190.229 C 280.517,190.229 297.967,208.038 297.967,230.038 L 297.967,448.039 L 297.975,448.094 C 298.017,471.288 280.267,487.583 258.517,487.583 L 39.767,487.583 L 39.767,487.587 C 18.017,487.587 0,470.288 0,448.039 z" />
        <path
           style="fill:#ffffff;stroke:none"
           id="path1438"
           d="M 41.174,231.902 L 256.793,231.902 L 256.793,446.271 L 41.174,446.271 L 41.174,231.902 z" />
      </g>
      <g
         id="g1440">
        <path
           style="fill:#000000;stroke:none"
           id="path1442"
           d="M 202.892,21.5064 C 202.652,-7.0076 243.902,-7.32959 244.142,21.5064 L 243.515,108.033 L 265.705,80.8514 C 281.017,64.0384 307.955,87.4764 291.329,106.476 L 237.517,170.538 C 229.017,179.038 217.967,178.988 209.517,170.538 L 155.954,106.226 C 139.329,87.2264 166.517,63.5384 181.579,80.6014 L 203.519,108.033 L 202.892,21.5064 z" />
        <path
           style="fill:#000000;stroke:none"
           id="path1444"
           d="M 53.142,155.57 C 52.902,184.085 94.152,184.408 94.392,155.57 L 93.765,69.0444 L 115.954,96.2264 C 131.267,113.038 158.204,89.6014 141.579,70.6014 L 87.767,6.53842 C 79.267,-1.96158 68.217,-1.91058 59.767,6.53842 L 6.205,70.8514 C -10.421,89.8514 16.767,113.538 31.829,96.4764 L 53.769,69.0444 L 53.142,155.57 z" />
      </g>
      <g
         id="g1446">
        <g
           id="g1448">
          <path
             style="fill:#000000;stroke:none"
             id="path1450"
             d="M 246.572,354.695 C 246.572,359.039 243.079,362.06 239.236,362.06 C 239.236,362.06 191.017,362.06 190.954,362.06 C 187.163,362.06 183.609,358.987 183.609,354.695 L 183.609,302.226 C 183.609,296.206 188.434,292.089 193.704,292.089 C 193.656,292.089 236.454,292.089 236.454,292.089 C 242.204,292.089 246.572,296.664 246.572,302.226 L 246.572,354.695 z" />
          <g
             id="g1452">
            <path
               style="fill:#000000;stroke:none"
               id="path1454"
               d="M 234.767,360.143 L 216.395,360.143 L 216.395,431.101 C 216.395,443.69 234.767,443.69 234.767,431.101 L 234.767,360.143 z" />
            <path
               style="fill:#000000;stroke:none"
               id="path1456"
               d="M 213.602,360.143 L 195.23,360.143 L 195.23,431.101 C 195.23,443.594 213.602,443.594 213.602,431.101 L 213.602,360.143 z" />
          </g>
          <g
             id="g1458">
            <path
               style="fill:#000000;stroke:none"
               id="path1460"
               d="M 215.267,287.828 C 222.882,287.828 229.056,281.654 229.056,274.039 C 229.056,266.424 222.882,260.25 215.267,260.25 C 207.652,260.25 201.478,266.424 201.478,274.039 C 201.478,281.654 207.652,287.828 215.267,287.828 z" />
            <path
               style="fill:#000000;stroke:none"
               id="path1462" />
          </g>
        </g>
        <g
           id="g1464">
          <path
             style="fill:#000000;stroke:none"
             id="path1466"
             d="M 180.572,354.695 C 180.572,359.039 177.079,362.06 173.236,362.06 C 173.236,362.06 125.017,362.06 124.954,362.06 C 121.163,362.06 117.609,358.987 117.609,354.695 L 117.609,302.226 C 117.609,296.206 122.434,292.089 127.704,292.089 C 127.656,292.089 170.454,292.089 170.454,292.089 C 176.204,292.089 180.572,296.664 180.572,302.226 L 180.572,354.695 z" />
          <g
             id="g1468">
            <path
               style="fill:#000000;stroke:none"
               id="path1470"
               d="M 168.767,360.143 L 150.395,360.143 L 150.395,431.101 C 150.395,443.69 168.767,443.69 168.767,431.101 L 168.767,360.143 z" />
            <path
               style="fill:#000000;stroke:none"
               id="path1472"
               d="M 147.602,360.143 L 129.23,360.143 L 129.23,431.101 C 129.23,443.594 147.602,443.594 147.602,431.101 L 147.602,360.143 z" />
          </g>
          <g
             id="g1474">
            <path
               style="fill:#000000;stroke:none"
               id="path1476"
               d="M 149.267,287.828 C 156.882,287.828 163.056,281.654 163.056,274.039 C 163.056,266.424 156.882,260.25 149.267,260.25 C 141.652,260.25 135.478,266.424 135.478,274.039 C 135.478,281.654 141.652,287.828 149.267,287.828 z" />
            <path
               style="fill:#000000;stroke:none"
               id="path1478" />
          </g>
        </g>
        <g
           id="g1480">
          <path
             style="fill:#000000;stroke:none"
             id="path1482"
             d="M 114.572,354.695 C 114.572,359.039 111.079,362.06 107.236,362.06 C 107.236,362.06 59.017,362.06 58.9545,362.06 C 55.1629,362.06 51.6095,358.987 51.6095,354.695 L 51.6095,302.226 C 51.6095,296.206 56.4338,292.089 61.7045,292.089 C 61.6555,292.089 104.454,292.089 104.454,292.089 C 110.204,292.089 114.572,296.664 114.572,302.226 L 114.572,354.695 z" />
          <g
             id="g1484">
            <path
               style="fill:#000000;stroke:none"
               id="path1486"
               d="M 102.767,360.143 L 84.3945,360.143 L 84.3945,431.101 C 84.3945,443.69 102.767,443.69 102.767,431.101 L 102.767,360.143 z" />
            <path
               style="fill:#000000;stroke:none"
               id="path1488"
               d="M 81.6015,360.143 L 63.2305,360.143 L 63.2305,431.101 C 63.2305,443.594 81.6015,443.594 81.6015,431.101 L 81.6015,360.143 z" />
          </g>
          <g
             id="g1490">
            <path
               style="fill:#000000;stroke:none"
               id="path1492"
               d="M 83.267,287.828 C 90.8821,287.828 97.0556,281.654 97.0556,274.039 C 97.0556,266.424 90.8821,260.25 83.267,260.25 C 75.6519,260.25 69.4784,266.424 69.4784,274.039 C 69.4784,281.654 75.6519,287.828 83.267,287.828 z" />
            <path
               style="fill:#000000;stroke:none"
               id="path1494" />
          </g>
        </g>
      </g>
    </g>
  </g>
</svg>
