<?xml version="1.0" encoding="UTF-8" standalone="no"?>
<svg
   xmlns:dc="http://purl.org/dc/elements/1.1/"
   xmlns:cc="http://creativecommons.org/ns#"
   xmlns:rdf="http://www.w3.org/1999/02/22-rdf-syntax-ns#"
   xmlns:svg="http://www.w3.org/2000/svg"
   xmlns="http://www.w3.org/2000/svg"
   xmlns:sodipodi="http://sodipodi.sourceforge.net/DTD/sodipodi-0.dtd"
   xmlns:inkscape="http://www.inkscape.org/namespaces/inkscape"
   height="2.8699999"
   id="svg1507"
   inkscape:version="0.46"
   sodipodi:docbase="/datas/Projs/Cliparts Stocker/tmp/AIGA"
   sodipodi:docname="11949891601996596990aiga_toilet_men_.svg"
   sodipodi:version="0.32"
   width="1.2250154"
   inkscape:output_extension="org.inkscape.output.svg.inkscape"
   version="1.0">
  <metadata
     id="metadata7598">
    <rdf:RDF>
      <cc:Work
         rdf:about="">
        <dc:title>AIGA_Symbol_Signs</dc:title>
        <dc:description>EPS converted from  http://aiga.org</dc:description>
        <dc:subject>
          <rdf:Bag>
            <rdf:li>symbol</rdf:li>
            <rdf:li>mapsym</rdf:li>
          </rdf:Bag>
        </dc:subject>
        <dc:publisher>
          <cc:Agent
             rdf:about="http://www.openclipart.org/">
            <dc:title>Open Clip Art Library</dc:title>
          </cc:Agent>
        </dc:publisher>
        <dc:creator>
          <cc:Agent>
            <dc:title>Jean-Victor Balin</dc:title>
          </cc:Agent>
        </dc:creator>
        <dc:rights>
          <cc:Agent>
            <dc:title>Jean-Victor Balin</dc:title>
          </cc:Agent>
        </dc:rights>
        <dc:date />
        <dc:format>image/svg+xml</dc:format>
        <dc:type
           rdf:resource="http://purl.org/dc/dcmitype/StillImage" />
        <cc:license
           rdf:resource="http://web.resource.org/cc/PublicDomain" />
        <dc:language>en</dc:language>
      </cc:Work>
      <cc:License
         rdf:about="http://web.resource.org/cc/PublicDomain">
        <cc:permits
           rdf:resource="http://web.resource.org/cc/Reproduction" />
        <cc:permits
           rdf:resource="http://web.resource.org/cc/Distribution" />
        <cc:permits
           rdf:resource="http://web.resource.org/cc/DerivativeWorks" />
      </cc:License>
    </rdf:RDF>
  </metadata>
  <sodipodi:namedview
     bordercolor="#666666"
     borderopacity="1.0"
     id="base"
     inkscape:current-layer="svg1507"
     inkscape:cx="0.81057332"
     inkscape:cy="1.1236414"
     inkscape:pageopacity="0.0"
     inkscape:pageshadow="2"
     inkscape:window-height="1062"
     inkscape:window-width="621"
     inkscape:window-x="3388"
     inkscape:window-y="45"
     inkscape:zoom="222.28908"
     pagecolor="#ffffff"
     showgrid="false" />
  <defs
     id="defs1509">
    <inkscape:perspective
       sodipodi:type="inkscape:persp3d"
       inkscape:vp_x="0 : 246.20351 : 1"
       inkscape:vp_y="0 : 1000 : 0"
       inkscape:vp_z="191.237 : 246.20351 : 1"
       inkscape:persp3d-origin="95.6185 : 164.13567 : 1"
       id="perspective7611" />
    <marker
       id="ArrowEnd"
       markerHeight="3"
       markerUnits="strokeWidth"
       markerWidth="4"
       orient="auto"
       refX="0"
       refY="5"
       viewBox="0 0 10 10">
      <path
         d="M 0,0 L 10,5 L 0,10 L 0,0 z"
         id="path1512" />
    </marker>
    <marker
       id="ArrowStart"
       markerHeight="3"
       markerUnits="strokeWidth"
       markerWidth="4"
       orient="auto"
       refX="10"
       refY="5"
       viewBox="0 0 10 10">
      <path
         d="M 10,0 L 0,5 L 10,10 L 10,0 z"
         id="path1515" />
    </marker>
  </defs>
  <g
     id="g8047">
    <path
       style="fill:#231f20"
       d="M 1.0786131,2.87 C 1.1593991,2.87 1.2250154,2.7168 1.2250154,2.5275 L 1.2250154,0.34306 C 1.2250154,0.15357 1.159409,0 1.0786131,0 L 0.14647151,0 C 0.065606372,0 0,0.15355 0,0.34306 L 0,2.5275 C 0,2.7168 0.065606372,2.87 0.14647151,2.87 L 1.0786131,2.87 z"
       id="path7662" />
    <path
       style="fill:#ffffff"
       d="M 0.16897735,0.05771 C 0.10513366,0.05771 0.053235943,0.18603 0.053235943,0.34304 L 0.053235943,2.52748 C 0.053235943,2.68393 0.10513366,2.81155 0.16897735,2.81155 L 1.0561096,2.81155 C 1.1198778,2.81155 1.1717003,2.68395 1.1717003,2.52748 L 1.1717003,0.34306 C 1.1717003,0.18605 1.1198778,0.05773 1.0561096,0.05773 L 0.16897735,0.05773 L 0.16897735,0.05771 z"
       id="path7664" />
    <g
       transform="matrix(4.2049725e-3,0,0,4.2049725e-3,0.2044725,0.38975)"
       id="g1517">
      <g
         id="g1519">
        <path
           style="fill:#000000;stroke:none"
           id="path1521"
           d="M 95.872,81.671 C 118.422,81.671 136.706,63.387 136.706,40.835 C 136.706,18.284 118.422,0 95.872,0 C 73.319,0 55.038,18.284 55.038,40.835 C 55.038,63.387 73.319,81.671 95.872,81.671 z" />
        <path
           d=""
           style="fill:#000000;stroke:none"
           id="path1523" />
      </g>
      <path
         style="fill:#000000;stroke:none"
         id="path1525"
         d="M 52.173,90.683 C 23.256,90.683 0,114.267 0,143.683 L 0,269.058 C 0,293.433 35.673,293.433 35.673,269.058 L 35.673,154.416 L 44.118,154.416 L 44.118,468.323 C 44.118,500.913 91.621,499.954 91.621,468.323 L 91.621,286.104 L 99.803,286.104 L 99.803,468.323 C 99.803,499.954 147.567,500.913 147.567,468.323 L 147.567,154.416 L 155.814,154.416 L 155.814,269.058 C 155.814,293.621 191.301,293.62 191.237,269.058 L 191.237,144.433 C 191.237,117.308 170.173,90.739 138.423,90.739 L 52.173,90.683 z" />
    </g>
  </g>
</svg>
