<?xml version="1.0" encoding="UTF-8" standalone="no"?>
<!-- Generator: Adobe Illustrator 13.0.2, SVG Export Plug-In . SVG Version: 6.00 Build 14948)  -->
<svg
   xmlns:dc="http://purl.org/dc/elements/1.1/"
   xmlns:cc="http://creativecommons.org/ns#"
   xmlns:rdf="http://www.w3.org/1999/02/22-rdf-syntax-ns#"
   xmlns:svg="http://www.w3.org/2000/svg"
   xmlns="http://www.w3.org/2000/svg"
   xmlns:sodipodi="http://sodipodi.sourceforge.net/DTD/sodipodi-0.dtd"
   xmlns:inkscape="http://www.inkscape.org/namespaces/inkscape"
   version="1.0"
   id="Layer_1"
   x="0px"
   y="0px"
   width="2.870209"
   height="2.8699999"
   viewBox="-0.258 -0.548 123.547 123.539"
   xml:space="preserve"
   sodipodi:version="0.32"
   inkscape:version="0.46"
   inkscape:output_extension="org.inkscape.output.svg.inkscape"
   sodipodi:docname="1206571687347812366johnny_automatic_NPS_map_pictographs_part_79.svg"><metadata
   id="metadata9779"><rdf:RDF><cc:Work
       rdf:about=""><dc:format>image/svg+xml</dc:format><dc:type
         rdf:resource="http://purl.org/dc/dcmitype/StillImage" /></cc:Work></rdf:RDF></metadata><defs
   id="defs9777"><inkscape:perspective
     sodipodi:type="inkscape:persp3d"
     inkscape:vp_x="0 : 61.769501 : 1"
     inkscape:vp_y="0 : 1000 : 0"
     inkscape:vp_z="123.547 : 61.769501 : 1"
     inkscape:persp3d-origin="61.773499 : 41.179667 : 1"
     id="perspective9781" /></defs><sodipodi:namedview
   inkscape:window-height="684"
   inkscape:window-width="1223"
   inkscape:pageshadow="2"
   inkscape:pageopacity="0.0"
   guidetolerance="10.0"
   gridtolerance="10.0"
   objecttolerance="10.0"
   borderopacity="1.0"
   bordercolor="#666666"
   pagecolor="#ffffff"
   id="base"
   showgrid="false"
   inkscape:zoom="64"
   inkscape:cx="0.62056878"
   inkscape:cy="2.2903324"
   inkscape:window-x="2829"
   inkscape:window-y="238"
   inkscape:current-layer="Layer_1" />
<g
   id="g9716"
   transform="matrix(1.0000648,0,0,1.0000648,-1.1175559,-0.6150043)">
	<path
   style="fill:#231f20"
   d="M 109.633,123.598 C 117.781,123.598 124.399,117.012 124.399,108.856 L 124.399,14.84 C 124.399,6.684 117.782,0.067 109.633,0.067 L 15.617,0.067 C 7.461,0.067 0.859,6.684 0.859,14.84 L 0.859,108.856 C 0.859,117.012 7.461,123.598 15.617,123.598 L 109.633,123.598 L 109.633,123.598 z"
   id="path9718" />
	<path
   style="fill:#ffffff"
   d="M 15.617,2.559 C 8.859,2.559 3.359,8.075 3.359,14.84 L 3.359,108.856 C 3.359,115.59 8.859,121.09 15.617,121.09 L 109.633,121.09 C 116.391,121.09 121.883,115.59 121.883,108.856 L 121.883,14.84 C 121.883,8.074 116.391,2.559 109.633,2.559 L 15.617,2.559 L 15.617,2.559 z"
   id="path9720" />
	<path
   style="fill:#231f20"
   d="M 68.344,66.402 C 75.133,66.402 80.625,60.902 80.625,54.121 C 80.625,47.332 75.133,41.84 68.344,41.84 C 61.555,41.84 56.047,47.332 56.047,54.121 C 56.047,60.902 61.555,66.402 68.344,66.402 z"
   id="path9722" />
	<path
   style="fill:#231f20"
   d="M 56.766,96.254 C 56.766,97.574 57.828,99.309 59.164,99.309 L 59.164,99.286 L 64.828,99.286 L 64.828,99.309 C 66.172,99.309 67.883,97.598 67.883,96.278 L 67.883,85.832 C 67.883,84.512 66.172,82.832 64.828,82.832 L 59.164,82.832 C 57.914,82.832 56.898,84.418 56.766,85.613 L 56.766,85.613 L 56.766,85.613 C 64.93,85.613 64.875,96.254 56.766,96.254 L 56.766,96.254 z M 51.617,70.332 C 52.929,69.059 54.719,68.301 56.672,68.301 L 80.891,68.301 L 105.258,43.863 C 110.485,38.613 117.32,45.425 112.094,50.675 L 85.359,77.48 L 85.382,114.082 L 53.32,114.082 L 53.32,96.309 L 38.836,96.309 C 35.82,96.309 33.367,93.864 33.367,90.84 C 33.367,89.543 33.805,88.371 34.547,87.418 L 51.617,70.332 z"
   id="path9724" />
	<polygon
   style="fill:#231f20"
   points="12.883,22.621 15.859,25.605 30.242,10.902 27.266,7.926 20.742,10.395 17.75,7.418 11.75,13.395 14.727,16.402 12.883,22.621 "
   id="polygon9726" />
	<path
   style="fill:#231f20"
   d="M 35.023,69.324 C 34.742,71.136 35.992,72.769 37.757,73.012 C 39.538,73.309 41.226,72.012 41.445,70.278 C 41.718,68.473 40.492,66.84 38.703,66.59 C 36.93,66.324 35.258,67.543 35.023,69.324 z"
   id="path9728" />
	<path
   style="fill:#231f20"
   d="M 37.844,61.902 C 38.086,60.199 36.93,58.636 35.235,58.386 C 33.54,58.144 31.977,59.316 31.727,61.003 C 31.485,62.737 32.657,64.245 34.344,64.495 C 36.023,64.762 37.617,63.566 37.844,61.902 z"
   id="path9730" />
	<path
   style="fill:#231f20"
   d="M 34.242,53.535 C 34.461,51.918 33.375,50.433 31.765,50.183 C 30.156,49.964 28.679,51.066 28.445,52.675 C 28.211,54.316 29.312,55.753 30.914,55.995 C 32.523,56.27 34.023,55.098 34.242,53.535 z"
   id="path9732" />
	<path
   style="fill:#231f20"
   d="M 30.641,45.16 C 30.86,43.644 29.829,42.23 28.297,42.012 C 26.758,41.793 25.367,42.84 25.149,44.356 C 24.93,45.887 25.977,47.262 27.493,47.504 C 29.009,47.746 30.438,46.645 30.641,45.16 z"
   id="path9734" />
	<path
   style="fill:#231f20"
   d="M 27.039,36.785 C 27.25,35.34 26.258,34.004 24.836,33.808 C 23.383,33.613 22.07,34.589 21.867,36.027 C 21.656,37.496 22.633,38.761 24.062,39.004 C 25.508,39.223 26.844,38.199 27.039,36.785 z"
   id="path9736" />
	<path
   style="fill:#231f20"
   d="M 18.57,27.699 C 18.359,29.066 19.304,30.261 20.648,30.488 C 21.992,30.707 23.242,29.73 23.437,28.41 C 23.632,27.066 22.71,25.801 21.367,25.629 C 19.984,25.434 18.75,26.355 18.57,27.699 z"
   id="path9738" />
	<path
   style="fill:#231f20"
   d="M 47.148,57.512 C 47.234,55.754 48.75,54.364 50.515,54.457 C 52.296,54.559 53.656,56.043 53.57,57.855 C 53.508,59.636 51.984,60.98 50.195,60.878 C 48.43,60.832 47.047,59.316 47.148,57.512 z"
   id="path9740" />
	<path
   style="fill:#231f20"
   d="M 45.117,54.02 C 43.437,53.95 42.117,52.528 42.219,50.801 C 42.305,49.113 43.742,47.817 45.43,47.895 C 47.125,47.989 48.407,49.403 48.328,51.114 C 48.258,52.824 46.82,54.09 45.117,54.02 z"
   id="path9742" />
	<path
   style="fill:#231f20"
   d="M 40.055,47.137 C 38.453,47.059 37.211,45.723 37.297,44.106 C 37.383,42.497 38.735,41.254 40.352,41.348 C 41.946,41.426 43.18,42.793 43.11,44.403 C 43.047,45.988 41.664,47.23 40.055,47.137 z"
   id="path9744" />
	<path
   style="fill:#231f20"
   d="M 34.977,40.277 C 33.461,40.199 32.282,38.933 32.368,37.394 C 32.454,35.878 33.735,34.706 35.259,34.785 C 36.775,34.855 37.947,36.152 37.868,37.66 C 37.812,39.176 36.5,40.371 34.977,40.277 z"
   id="path9746" />
	<path
   style="fill:#231f20"
   d="M 29.914,33.418 C 28.484,33.34 27.359,32.121 27.445,30.684 C 27.515,29.262 28.726,28.168 30.164,28.215 C 31.594,28.285 32.703,29.512 32.633,30.949 C 32.57,32.363 31.336,33.488 29.914,33.418 z"
   id="path9748" />
	<path
   style="fill:#231f20"
   d="M 22.516,23.988 C 22.586,22.652 23.719,21.597 25.078,21.668 C 26.422,21.723 27.469,22.871 27.398,24.215 C 27.336,25.551 26.171,26.629 24.836,26.527 C 23.492,26.457 22.438,25.332 22.516,23.988 z"
   id="path9750" />
	<path
   style="fill:#231f20"
   d="M 55.945,43.691 C 54.164,43.793 52.617,42.425 52.554,40.644 C 52.46,38.832 53.859,37.324 55.64,37.246 C 57.39,37.176 58.921,38.519 58.992,40.348 C 59.094,42.082 57.734,43.621 55.945,43.691 z"
   id="path9752" />
	<path
   style="fill:#231f20"
   d="M 52.078,35.27 C 52.164,36.903 50.898,38.325 49.219,38.395 C 47.547,38.465 46.11,37.2 46.039,35.543 C 45.961,33.855 47.258,32.465 48.93,32.363 C 50.578,32.293 51.992,33.559 52.078,35.27 z"
   id="path9754" />
	<path
   style="fill:#231f20"
   d="M 45.172,30.191 C 45.242,31.73 44.047,33.05 42.484,33.121 C 40.922,33.199 39.57,31.996 39.507,30.465 C 39.429,28.871 40.655,27.559 42.218,27.481 C 43.75,27.41 45.086,28.605 45.172,30.191 z"
   id="path9756" />
	<path
   style="fill:#231f20"
   d="M 38.258,25.113 C 38.32,26.558 37.211,27.801 35.758,27.847 C 34.305,27.917 33.047,26.8 32.985,25.355 C 32.93,23.894 34.063,22.675 35.516,22.597 C 36.945,22.527 38.188,23.652 38.258,25.113 z"
   id="path9758" />
	<path
   style="fill:#231f20"
   d="M 26.469,20.277 C 26.399,18.91 27.461,17.761 28.797,17.715 C 30.133,17.645 31.289,18.692 31.352,20.035 C 31.415,21.378 30.375,22.527 29.032,22.574 C 27.688,22.652 26.516,21.598 26.469,20.277 z"
   id="path9760" />
	<path
   style="fill:#231f20"
   d="M 32.508,13.762 C 33.844,13.567 35.11,14.496 35.305,15.84 C 35.5,17.184 34.571,18.449 33.219,18.621 C 31.875,18.84 30.617,17.887 30.422,16.543 C 30.242,15.199 31.18,13.957 32.508,13.762 z"
   id="path9762" />
	<path
   style="fill:#231f20"
   d="M 44.117,19.426 C 44.328,20.84 43.336,22.16 41.922,22.356 C 40.508,22.575 39.18,21.575 38.984,20.184 C 38.789,18.77 39.773,17.426 41.179,17.231 C 42.578,17.035 43.914,18.012 44.117,19.426 z"
   id="path9764" />
	<path
   style="fill:#231f20"
   d="M 52.93,22.988 C 53.157,24.504 52.118,25.871 50.625,26.09 C 49.141,26.309 47.734,25.262 47.523,23.793 C 47.32,22.309 48.359,20.918 49.835,20.699 C 51.312,20.473 52.711,21.504 52.93,22.988 z"
   id="path9766" />
	<path
   style="fill:#231f20"
   d="M 61.727,26.582 C 61.977,28.144 60.875,29.582 59.313,29.824 C 57.766,30.043 56.29,28.972 56.086,27.41 C 55.859,25.848 56.938,24.379 58.484,24.16 C 60.047,23.918 61.508,25.02 61.727,26.582 z"
   id="path9768" />
	<path
   style="fill:#231f20"
   d="M 70.539,30.168 C 70.789,31.801 69.641,33.316 68.023,33.559 C 66.39,33.809 64.851,32.661 64.632,31.043 C 64.413,29.41 65.538,27.871 67.148,27.629 C 68.781,27.41 70.297,28.535 70.539,30.168 z"
   id="path9770" />
	<path
   style="fill:#231f20"
   d="M 79.352,33.754 C 79.625,35.465 78.43,37.051 76.719,37.293 C 75.031,37.543 73.422,36.348 73.18,34.66 C 72.938,32.949 74.11,31.34 75.813,31.098 C 77.523,30.855 79.109,32.051 79.352,33.754 z"
   id="path9772" />
	<path
   style="fill:#231f20"
   d="M 84.484,34.559 C 86.265,34.317 87.922,35.567 88.172,37.348 C 88.438,39.106 87.195,40.762 85.438,41.036 C 83.649,41.302 81.969,40.059 81.75,38.278 C 81.477,36.488 82.703,34.832 84.484,34.559 z"
   id="path9774" />
</g>
</svg>