<?xml version="1.0" encoding="UTF-8" standalone="no"?>
<!-- Generator: Adobe Illustrator 13.0.2, SVG Export Plug-In . SVG Version: 6.00 Build 14948)  -->
<svg
   xmlns:dc="http://purl.org/dc/elements/1.1/"
   xmlns:cc="http://creativecommons.org/ns#"
   xmlns:rdf="http://www.w3.org/1999/02/22-rdf-syntax-ns#"
   xmlns:svg="http://www.w3.org/2000/svg"
   xmlns="http://www.w3.org/2000/svg"
   xmlns:sodipodi="http://sodipodi.sourceforge.net/DTD/sodipodi-0.dtd"
   xmlns:inkscape="http://www.inkscape.org/namespaces/inkscape"
   version="1.0"
   id="Layer_1"
   x="0px"
   y="0px"
   width="2.8702092"
   height="2.8700001"
   viewBox="-0.258 -0.548 123.547 123.539"
   xml:space="preserve"
   sodipodi:version="0.32"
   inkscape:version="0.46"
   inkscape:output_extension="org.inkscape.output.svg.inkscape"
   sodipodi:docname="1206572292566523398johnny_automatic_NPS_map_pictographs_part_28.svg"><metadata
   id="metadata8380"><rdf:RDF><cc:Work
       rdf:about=""><dc:format>image/svg+xml</dc:format><dc:type
         rdf:resource="http://purl.org/dc/dcmitype/StillImage" /></cc:Work></rdf:RDF></metadata><defs
   id="defs8378"><inkscape:perspective
   sodipodi:type="inkscape:persp3d"
   inkscape:vp_x="0 : 61.769501 : 1"
   inkscape:vp_y="0 : 1000 : 0"
   inkscape:vp_z="123.547 : 61.769501 : 1"
   inkscape:persp3d-origin="61.773499 : 41.179667 : 1"
   id="perspective8382" />
	
	
	
	
</defs><sodipodi:namedview
   inkscape:window-height="1126"
   inkscape:window-width="884"
   inkscape:pageshadow="2"
   inkscape:pageopacity="0.0"
   guidetolerance="10.0"
   gridtolerance="10.0"
   objecttolerance="10.0"
   borderopacity="1.0"
   bordercolor="#666666"
   pagecolor="#ffffff"
   id="base"
   showgrid="false"
   inkscape:zoom="256"
   inkscape:cx="0.98583262"
   inkscape:cy="1.5519539"
   inkscape:window-x="122"
   inkscape:window-y="154"
   inkscape:current-layer="Layer_1" />
<g
   id="g8897"
   transform="matrix(1.0251328,0,0,1.0251328,-0.5783437,-0.3839788)"><path
     style="fill:#231f20"
     d="M 109.086,123.363 C 117.242,123.363 123.844,116.777 123.844,108.621 L 123.844,14.598 C 123.844,6.442 117.242,-0.16 109.086,-0.16 L 15.07,-0.16 C 6.914,-0.16 0.312,6.442 0.312,14.598 L 0.312,108.621 C 0.312,116.777 6.914,123.363 15.07,123.363 L 109.086,123.363 z"
     id="path8369" /><path
     style="fill:#ffffff;fill-opacity:1"
     d="M 15.07,2.34 C 8.312,2.34 2.812,7.84 2.812,14.598 L 2.812,108.621 C 2.812,115.379 8.312,120.871 15.07,120.871 L 109.086,120.871 C 115.852,120.871 121.344,115.379 121.344,108.621 L 121.344,14.598 C 121.344,7.84 115.852,2.34 109.086,2.34 L 15.07,2.34 z"
     id="path8371" /><path
     style="fill:#000000;fill-opacity:1"
     d="M 56.711,43.301 C 56.711,46.559 53.742,50.035 49.899,50.035 L 49.899,105.066 C 49.899,112.871 39.243,112.871 39.243,105.066 L 39.243,50.035 C 35.493,50.035 32.235,47.144 32.235,42.808 L 32.235,12.535 C 32.235,9.902 36.04,9.793 36.04,12.637 L 36.04,35.02 L 39.228,35.02 L 42.9,35.02 L 42.619,35.02 L 42.619,12.465 C 42.619,9.934 46.189,9.84 46.189,12.559 L 46.189,35.02 L 53,35.02 L 53,12.465 C 53,9.973 56.711,9.879 56.711,12.559 L 56.711,43.301 z"
     id="path8373" /><path
     style="fill:#000000;fill-opacity:1"
     d="M 90.094,19.582 L 90.094,105.027 C 90.094,112.668 79.422,112.558 79.422,105.027 L 79.422,71.145 L 73.734,71.145 L 73.734,19.582 C 73.734,7.59 90.094,7.59 90.094,19.582 z"
     id="path8375" /></g>
</svg>