<?xml version="1.0" encoding="UTF-8" standalone="no"?>
<svg
   xmlns:dc="http://purl.org/dc/elements/1.1/"
   xmlns:cc="http://creativecommons.org/ns#"
   xmlns:rdf="http://www.w3.org/1999/02/22-rdf-syntax-ns#"
   xmlns:svg="http://www.w3.org/2000/svg"
   xmlns="http://www.w3.org/2000/svg"
   xmlns:sodipodi="http://sodipodi.sourceforge.net/DTD/sodipodi-0.dtd"
   xmlns:inkscape="http://www.inkscape.org/namespaces/inkscape"
   height="2.94175"
   id="svg2169"
   inkscape:version="0.46"
   sodipodi:docbase="/datas/Projs/Cliparts Stocker/tmp/AIGA"
   sodipodi:docname="1194989153213449932aiga_stairs1.svg"
   sodipodi:version="0.32"
   width="2.9419646"
   inkscape:output_extension="org.inkscape.output.svg.inkscape"
   version="1.0">
  <metadata
     id="metadata8945">
    <rdf:RDF>
      <cc:Work
         rdf:about="">
        <dc:title>AIGA_Symbol_Signs</dc:title>
        <dc:description>EPS converted from  http://aiga.org</dc:description>
        <dc:subject>
          <rdf:Bag>
            <rdf:li>symbol</rdf:li>
            <rdf:li>mapsym</rdf:li>
          </rdf:Bag>
        </dc:subject>
        <dc:publisher>
          <cc:Agent
             rdf:about="http://www.openclipart.org/">
            <dc:title>Open Clip Art Library</dc:title>
          </cc:Agent>
        </dc:publisher>
        <dc:creator>
          <cc:Agent>
            <dc:title>Jean-Victor Balin</dc:title>
          </cc:Agent>
        </dc:creator>
        <dc:rights>
          <cc:Agent>
            <dc:title>Jean-Victor Balin</dc:title>
          </cc:Agent>
        </dc:rights>
        <dc:date />
        <dc:format>image/svg+xml</dc:format>
        <dc:type
           rdf:resource="http://purl.org/dc/dcmitype/StillImage" />
        <cc:license
           rdf:resource="http://web.resource.org/cc/PublicDomain" />
        <dc:language>en</dc:language>
      </cc:Work>
      <cc:License
         rdf:about="http://web.resource.org/cc/PublicDomain">
        <cc:permits
           rdf:resource="http://web.resource.org/cc/Reproduction" />
        <cc:permits
           rdf:resource="http://web.resource.org/cc/Distribution" />
        <cc:permits
           rdf:resource="http://web.resource.org/cc/DerivativeWorks" />
      </cc:License>
    </rdf:RDF>
  </metadata>
  <sodipodi:namedview
     bordercolor="#666666"
     borderopacity="1.0"
     id="base"
     inkscape:current-layer="svg2169"
     inkscape:cx="2.179188"
     inkscape:cy="0.5838349"
     inkscape:pageopacity="0.0"
     inkscape:pageshadow="2"
     inkscape:window-height="684"
     inkscape:window-width="621"
     inkscape:window-x="2660"
     inkscape:window-y="463"
     inkscape:zoom="55.57227"
     pagecolor="#ffffff"
     showgrid="false" />
  <defs
     id="defs2171">
    <inkscape:perspective
       sodipodi:type="inkscape:persp3d"
       inkscape:vp_x="0 : 306.58551 : 1"
       inkscape:vp_y="0 : 1000 : 0"
       inkscape:vp_z="612.164 : 306.58551 : 1"
       inkscape:persp3d-origin="306.082 : 204.39034 : 1"
       id="perspective8958" />
    <marker
       id="ArrowEnd"
       markerHeight="3"
       markerUnits="strokeWidth"
       markerWidth="4"
       orient="auto"
       refX="0"
       refY="5"
       viewBox="0 0 10 10">
      <path
         d="M 0,0 L 10,5 L 0,10 L 0,0 z"
         id="path2174" />
    </marker>
    <marker
       id="ArrowStart"
       markerHeight="3"
       markerUnits="strokeWidth"
       markerWidth="4"
       orient="auto"
       refX="10"
       refY="5"
       viewBox="0 0 10 10">
      <path
         d="M 10,0 L 0,5 L 10,10 L 10,0 z"
         id="path2177" />
    </marker>
  </defs>
  <g
     id="g9498"
     transform="translate(9.8204701,109.95474)">
    <path
       style="fill:#231f20"
       d="M -7.2299732,-107.01299 C -7.0357348,-107.01299 -6.8785055,-107.16984 -6.8785055,-107.36408 L -6.8785055,-109.60327 C -6.8785055,-109.79751 -7.0357348,-109.95474 -7.2299732,-109.95474 L -9.4690023,-109.95474 C -9.6632408,-109.95474 -9.8204701,-109.79751 -9.8204701,-109.60327 L -9.8204701,-107.36408 C -9.8204701,-107.16984 -9.6632408,-107.01299 -9.4690023,-107.01299 L -7.2299732,-107.01299 z"
       id="path8369" />
    <path
       style="fill:#ffffff;fill-opacity:1"
       d="M -9.4690023,-109.8952 C -9.6299469,-109.8952 -9.7609316,-109.76422 -9.7609316,-109.60327 L -9.7609316,-107.36408 C -9.7609316,-107.20313 -9.6299469,-107.07234 -9.4690023,-107.07234 L -7.2299732,-107.07234 C -7.0688382,-107.07234 -6.938044,-107.20313 -6.938044,-107.36408 L -6.938044,-109.60327 C -6.938044,-109.76422 -7.0688382,-109.8952 -7.2299732,-109.8952 L -9.4690023,-109.8952 z"
       id="path8371" />
    <g
       id="g9494"
       style="fill:#000000;fill-opacity:1"
       transform="matrix(4.9409733e-3,0,0,4.9409733e-3,-9.8725019,-110.02315)">
      <path
         style="fill:#000000;fill-opacity:1;stroke:none"
         id="path9496"
         d="M 90.7058,443.447 L 170.756,443.447 L 170.756,361.973 L 250.29,361.973 L 250.29,279.947 L 331.079,279.947 L 331.079,199.448 L 411.32,199.448 L 411.32,119.474 L 530.458,119.474 L 530.458,160.278 L 451.256,160.278 L 451.256,240.555 L 370.924,240.555 L 370.924,321.964 L 290.756,321.964 L 290.756,402.947 L 210.256,402.947 L 210.256,484.619 L 90.7058,484.619 L 90.7058,443.447 z" />
    </g>
  </g>
</svg>
