<?xml version="1.0" encoding="UTF-8" standalone="no"?>
<!-- Generator: Adobe Illustrator 13.0.2, SVG Export Plug-In . SVG Version: 6.00 Build 14948)  -->
<svg
   xmlns:dc="http://purl.org/dc/elements/1.1/"
   xmlns:cc="http://creativecommons.org/ns#"
   xmlns:rdf="http://www.w3.org/1999/02/22-rdf-syntax-ns#"
   xmlns:svg="http://www.w3.org/2000/svg"
   xmlns="http://www.w3.org/2000/svg"
   xmlns:sodipodi="http://sodipodi.sourceforge.net/DTD/sodipodi-0.dtd"
   xmlns:inkscape="http://www.inkscape.org/namespaces/inkscape"
   version="1.0"
   id="Layer_1"
   x="0px"
   y="0px"
   width="2.8705573"
   height="2.8700001"
   viewBox="-0.258 -0.548 123.547 123.539"
   xml:space="preserve"
   sodipodi:version="0.32"
   inkscape:version="0.46"
   inkscape:output_extension="org.inkscape.output.svg.inkscape"
   sodipodi:docname="12065718231585046481johnny_automatic_NPS_map_pictographs_part_97.svg"><metadata
   id="metadata13735"><rdf:RDF><cc:Work
       rdf:about=""><dc:format>image/svg+xml</dc:format><dc:type
         rdf:resource="http://purl.org/dc/dcmitype/StillImage" /></cc:Work></rdf:RDF></metadata><defs
   id="defs13733"><inkscape:perspective
     sodipodi:type="inkscape:persp3d"
     inkscape:vp_x="0 : 61.769501 : 1"
     inkscape:vp_y="0 : 1000 : 0"
     inkscape:vp_z="123.547 : 61.769501 : 1"
     inkscape:persp3d-origin="61.773499 : 41.179667 : 1"
     id="perspective13737" /></defs><sodipodi:namedview
   inkscape:window-height="684"
   inkscape:window-width="1036"
   inkscape:pageshadow="2"
   inkscape:pageopacity="0.0"
   guidetolerance="10.0"
   gridtolerance="10.0"
   objecttolerance="10.0"
   borderopacity="1.0"
   bordercolor="#666666"
   pagecolor="#ffffff"
   id="base"
   showgrid="false"
   inkscape:zoom="123.81515"
   inkscape:cx="2.0405032"
   inkscape:cy="1.4940166"
   inkscape:window-x="2916"
   inkscape:window-y="233"
   inkscape:current-layer="Layer_1" />
<g
   id="g13720"
   transform="matrix(1.0244113,0,0,1.0244113,-1.0978192,4.8207377e-2)">
	<path
   style="fill:#231f20"
   d="M 15.578,123.027 C 7.422,123.027 0.812,116.41 0.812,108.23 L 0.812,14.184 C 0.812,6.036 7.421,-0.582 15.578,-0.582 L 109.68,-0.582 C 117.836,-0.582 124.446,6.035 124.446,14.184 L 124.446,108.231 C 124.446,116.411 117.837,123.028 109.68,123.028 L 15.578,123.028 L 15.578,123.027 z"
   id="path13722" />
	<path
   style="fill:#ffffff"
   d="M 15.578,1.91 C 8.812,1.91 3.312,7.426 3.312,14.183 L 3.312,108.23 C 3.312,114.988 8.812,120.511 15.578,120.511 L 109.68,120.511 C 116.438,120.511 121.93,114.988 121.93,108.23 L 121.93,14.184 C 121.93,7.426 116.438,1.911 109.68,1.911 L 15.578,1.911 L 15.578,1.91 z"
   id="path13724" />
	<path
   style="fill:#231f20"
   d="M 52.766,29.473 C 57.352,29.473 61.047,25.739 61.047,21.192 C 61.047,16.606 57.352,12.919 52.766,12.919 C 48.196,12.919 44.485,16.607 44.485,21.192 C 44.484,25.738 48.195,29.473 52.766,29.473 z"
   id="path13726" />
	<path
   style="fill:#231f20"
   d="M 93.023,91.066 C 94.343,93.214 97.375,94.097 99.664,92.722 C 101.937,91.363 102.625,88.503 101.328,86.113 L 87.219,61.746 C 86.336,60.277 84.797,59.449 83.211,59.402 L 62.508,59.402 L 62.313,53.152 L 77.352,53.152 C 79.407,53.027 81.086,51.464 81.086,49.363 C 81.086,47.293 79.453,45.683 77.352,45.605 L 61.875,45.605 L 61.336,38.503 C 61.047,34.159 57.305,30.737 52.906,30.98 C 48.492,31.23 45.148,35.035 45.367,39.433 L 46.805,64.55 C 47.172,68.948 50.86,72.097 55.227,72.073 L 82.063,72.073 L 93.023,91.066 z"
   id="path13728" />
	<path
   style="fill:#231f20"
   d="M 58.086,100.512 C 44.508,100.512 33.5,89.528 33.5,75.926 C 33.5,68.481 36.867,61.84 42.117,57.324 L 41.679,49.636 C 32.89,55.128 26.984,64.8 26.984,75.925 C 26.984,93.089 40.898,107.034 58.086,107.034 C 70.734,107.034 81.555,99.417 86.414,88.573 L 82.039,81.003 C 79.695,92.113 69.906,100.512 58.086,100.512 z"
   id="path13730" />
</g>
</svg>